999
dxfrw 0.5.12
0
SECTION
2
HEADER
9
$ACADVER
1
AC1021
9
$HANDSEED
5
20000
9
$DWGCODEPAGE
3
ANSI_1252
9
$INSBASE
10
0
20
0
30
0
9
$EXTMIN
10
-113
20
-111.25
30
0
9
$EXTMAX
10
514.027777778
20
233.125
30
0
9
$LIMMIN
10
0
20
0
9
$LIMMAX
10
420
20
297
9
$ORTHOMODE
70
0
9
$LTSCALE
40
1
9
$TEXTSTYLE
7
STANDARD
9
$CLAYER
8
sizes
9
$DIMASZ
40
2.5
9
$DIMLFAC
40
1
9
$DIMSCALE
40
1
9
$DIMEXO
40
0.625
9
$DIMEXE
40
1.25
9
$DIMTXT
40
2.5
9
$DIMTSZ
40
0
9
$DIMAUNIT
70
0
9
$DIMADEC
70
0
9
$DIMLUNIT
70
2
9
$DIMSTYLE
2
STANDARD
9
$DIMGAP
40
0.625
9
$DIMTIH
70
0
9
$LUNITS
70
2
9
$LUPREC
70
4
9
$AUNITS
70
0
9
$AUPREC
70
2
9
$SPLINESEGS
70
8
9
$SNAPSTYLE
70
0
9
$PINSBASE
10
0
20
0
30
0
9
$PLIMMIN
10
0
20
0
9
$PLIMMAX
10
210
20
297
9
$INSUNITS
70
4
9
$PSVPSCALE
40
1
0
ENDSEC
0
SECTION
2
CLASSES
0
ENDSEC
0
SECTION
2
TABLES
0
TABLE
2
VPORT
5
8
330
0
100
AcDbSymbolTable
70
1
0
VPORT
5
31
330
2
100
AcDbSymbolTableRecord
100
AcDbViewportTableRecord
2
*ACTIVE
70
0
10
0
20
0
11
1
21
1
12
339.508056641
22
152.111053467
13
0
23
0
14
10
24
10
15
10
25
10
16
0
26
0
36
1
17
0
27
0
37
0
40
431.060791016
41
2.21017699115
42
50
43
0
44
0
50
0
51
0
71
0
72
100
73
1
74
3
75
0
76
1
77
0
78
0
281
0
65
1
110
0
120
0
130
0
111
1
121
0
131
0
112
0
122
1
132
0
79
0
146
0
348
10020
60
7
61
5
292
1
282
1
141
0
142
0
63
250
421
3358443
0
ENDTAB
0
TABLE
2
LTYPE
5
5
330
0
100
AcDbSymbolTable
70
4
0
LTYPE
5
14
330
5
100
AcDbSymbolTableRecord
100
AcDbLinetypeTableRecord
2
ByBlock
70
0
3

72
65
73
0
40
0
0
LTYPE
5
15
330
5
100
AcDbSymbolTableRecord
100
AcDbLinetypeTableRecord
2
ByLayer
70
0
3

72
65
73
0
40
0
0
LTYPE
5
16
330
5
100
AcDbSymbolTableRecord
100
AcDbLinetypeTableRecord
2
Continuous
70
0
3
Solid line
72
65
73
0
40
0
0
LTYPE
5
32
330
5
100
AcDbSymbolTableRecord
100
AcDbLinetypeTableRecord
2
DOT
70
0
3
Dot . . . . . . . . . . . . . . . . . . . . . .
72
65
73
2
40
6.35
49
0
74
0
49
-6.35
74
0
0
LTYPE
5
33
330
5
100
AcDbSymbolTableRecord
100
AcDbLinetypeTableRecord
2
DOT2
70
0
3
Dot (.5x) .....................................
72
65
73
2
40
3.175
49
0
74
0
49
-3.175
74
0
0
LTYPE
5
34
330
5
100
AcDbSymbolTableRecord
100
AcDbLinetypeTableRecord
2
DOTX2
70
0
3
Dot (2x) .  .  .  .  .  .  .  .  .  .  .  .  .
72
65
73
2
40
12.7
49
0
74
0
49
-12.7
74
0
0
LTYPE
5
35
330
5
100
AcDbSymbolTableRecord
100
AcDbLinetypeTableRecord
2
DASHED
70
0
3
Dot . . . . . . . . . . . . . . . . . . . . . .
72
65
73
2
40
19.05
49
12.7
74
0
49
-6.35
74
0
0
LTYPE
5
36
330
5
100
AcDbSymbolTableRecord
100
AcDbLinetypeTableRecord
2
DASHED2
70
0
3
Dashed (.5x) _ _ _ _ _ _ _ _ _ _ _ _ _ _ _ _ _
72
65
73
2
40
9.525
49
6.35
74
0
49
-3.175
74
0
0
LTYPE
5
37
330
5
100
AcDbSymbolTableRecord
100
AcDbLinetypeTableRecord
2
DASHEDX2
70
0
3
Dashed (2x) ____  ____  ____  ____  ____  ___
72
65
73
2
40
38.1
49
25.4
74
0
49
-12.7
74
0
0
LTYPE
5
38
330
5
100
AcDbSymbolTableRecord
100
AcDbLinetypeTableRecord
2
DASHDOT
70
0
3
Dash dot __ . __ . __ . __ . __ . __ . __ . __
72
65
73
4
40
25.4
49
12.7
74
0
49
-6.35
74
0
49
0
74
0
49
-6.35
74
0
0
LTYPE
5
39
330
5
100
AcDbSymbolTableRecord
100
AcDbLinetypeTableRecord
2
DASHDOT2
70
0
3
Dash dot (.5x) _._._._._._._._._._._._._._._.
72
65
73
4
40
12.7
49
6.35
74
0
49
-3.175
74
0
49
0
74
0
49
-3.175
74
0
0
LTYPE
5
3A
330
5
100
AcDbSymbolTableRecord
100
AcDbLinetypeTableRecord
2
DASHDOTX2
70
0
3
Dash dot (2x) ____  .  ____  .  ____  .  ___
72
65
73
4
40
50.8
49
25.4
74
0
49
-12.7
74
0
49
0
74
0
49
-12.7
74
0
0
LTYPE
5
3B
330
5
100
AcDbSymbolTableRecord
100
AcDbLinetypeTableRecord
2
DIVIDE
70
0
3
Divide ____ . . ____ . . ____ . . ____ . . ____
72
65
73
6
40
31.75
49
12.7
74
0
49
-6.35
74
0
49
0
74
0
49
-6.35
74
0
49
0
74
0
49
-6.35
74
0
0
LTYPE
5
3C
330
5
100
AcDbSymbolTableRecord
100
AcDbLinetypeTableRecord
2
DIVIDE2
70
0
3
Divide (.5x) __..__..__..__..__..__..__..__.._
72
65
73
6
40
15.875
49
6.35
74
0
49
-3.175
74
0
49
0
74
0
49
-3.175
74
0
49
0
74
0
49
-3.175
74
0
0
LTYPE
5
3D
330
5
100
AcDbSymbolTableRecord
100
AcDbLinetypeTableRecord
2
DIVIDEX2
70
0
3
Divide (2x) ________  .  .  ________  .  .  _
72
65
73
6
40
63.5
49
25.4
74
0
49
-12.7
74
0
49
0
74
0
49
-12.7
74
0
49
0
74
0
49
-12.7
74
0
0
LTYPE
5
3E
330
5
100
AcDbSymbolTableRecord
100
AcDbLinetypeTableRecord
2
BORDER
70
0
3
Border __ __ . __ __ . __ __ . __ __ . __ __ .
72
65
73
6
40
44.45
49
12.7
74
0
49
-6.35
74
0
49
12.7
74
0
49
-6.35
74
0
49
0
74
0
49
-6.35
74
0
0
LTYPE
5
3F
330
5
100
AcDbSymbolTableRecord
100
AcDbLinetypeTableRecord
2
BORDER2
70
0
3
Border (.5x) __.__.__.__.__.__.__.__.__.__.__.
72
65
73
6
40
22.225
49
6.35
74
0
49
-3.175
74
0
49
6.35
74
0
49
-3.175
74
0
49
0
74
0
49
-3.175
74
0
0
LTYPE
5
40
330
5
100
AcDbSymbolTableRecord
100
AcDbLinetypeTableRecord
2
BORDERX2
70
0
3
Border (2x) ____  ____  .  ____  ____  .  ___
72
65
73
6
40
88.9
49
25.4
74
0
49
-12.7
74
0
49
25.4
74
0
49
-12.7
74
0
49
0
74
0
49
-12.7
74
0
0
LTYPE
5
41
330
5
100
AcDbSymbolTableRecord
100
AcDbLinetypeTableRecord
2
CENTER
70
0
3
Center ____ _ ____ _ ____ _ ____ _ ____ _ ____
72
65
73
4
40
50.8
49
31.75
74
0
49
-6.35
74
0
49
6.35
74
0
49
-6.35
74
0
0
LTYPE
5
42
330
5
100
AcDbSymbolTableRecord
100
AcDbLinetypeTableRecord
2
CENTER2
70
0
3
Center (.5x) ___ _ ___ _ ___ _ ___ _ ___ _ ___
72
65
73
4
40
28.575
49
19.05
74
0
49
-3.175
74
0
49
3.175
74
0
49
-3.175
74
0
0
LTYPE
5
43
330
5
100
AcDbSymbolTableRecord
100
AcDbLinetypeTableRecord
2
CENTERX2
70
0
3
Center (2x) ________  __  ________  __  _____
72
65
73
4
40
101.6
49
63.5
74
0
49
-12.7
74
0
49
12.7
74
0
49
-12.7
74
0
0
ENDTAB
0
TABLE
2
LAYER
5
2
330
0
100
AcDbSymbolTable
70
1
0
LAYER
5
10
330
2
100
AcDbSymbolTableRecord
100
AcDbLayerTableRecord
2
0
70
0
62
7
6
CONTINUOUS
370
50
390
F
0
LAYER
5
44
330
2
100
AcDbSymbolTableRecord
100
AcDbLayerTableRecord
2
invis
70
0
62
7
6
DASHED
370
18
390
F
0
LAYER
5
45
330
2
100
AcDbSymbolTableRecord
100
AcDbLayerTableRecord
2
pcb2
70
0
62
96
420
32768
6
CONTINUOUS
370
35
390
F
0
LAYER
5
46
330
2
100
AcDbSymbolTableRecord
100
AcDbLayerTableRecord
2
sizes
70
0
62
7
6
CONTINUOUS
370
25
390
F
0
ENDTAB
0
TABLE
2
STYLE
5
3
330
0
100
AcDbSymbolTable
70
3
0
STYLE
5
47
330
2
100
AcDbSymbolTableRecord
100
AcDbTextStyleTableRecord
2
unicode
70
0
40
0
41
1
50
0
71
0
42
1
3
unicode
4

0
STYLE
5
48
330
2
100
AcDbSymbolTableRecord
100
AcDbTextStyleTableRecord
2
Standard
70
0
40
0
41
1
50
0
71
0
42
1
3
txt
4

0
ENDTAB
0
TABLE
2
VIEW
5
6
330
0
100
AcDbSymbolTable
70
0
0
ENDTAB
0
TABLE
2
UCS
5
7
330
0
100
AcDbSymbolTable
70
0
0
ENDTAB
0
TABLE
2
APPID
5
9
330
0
100
AcDbSymbolTable
70
1
0
APPID
5
12
330
9
100
AcDbSymbolTableRecord
100
AcDbRegAppTableRecord
2
ACAD
70
0
0
ENDTAB
0
TABLE
2
DIMSTYLE
5
A
330
0
100
AcDbSymbolTable
70
1
100
AcDbDimStyleTable
71
1
0
DIMSTYLE
105
49
330
A
100
AcDbSymbolTableRecord
100
AcDbDimStyleTableRecord
2
Standard
70
0
40
1
41
2.5
42
0.625
43
0.38
44
1.25
45
0
46
0
47
0
48
0
140
2.5
141
0.09
142
0
143
25.4
144
1
145
0
146
1
147
0.625
148
0
71
0
72
0
73
0
74
1
75
0
76
0
77
0
78
0
79
0
170
0
171
2
172
0
173
0
174
0
175
0
176
0
177
0
178
0
179
0
271
4
272
4
273
2
274
2
275
0
276
0
277
2
278
46
279
0
280
0
281
0
282
0
283
1
284
0
285
0
286
0
288
0
289
3
340
Standard
341

371
-2
372
-2
0
ENDTAB
0
TABLE
2
BLOCK_RECORD
5
1
330
0
100
AcDbSymbolTable
70
2
0
BLOCK_RECORD
5
1F
330
1
100
AcDbSymbolTableRecord
100
AcDbBlockTableRecord
2
*Model_Space
70
0
280
1
281
0
0
BLOCK_RECORD
5
1E
330
1
100
AcDbSymbolTableRecord
100
AcDbBlockTableRecord
2
*Paper_Space
70
0
280
1
281
0
0
BLOCK_RECORD
5
4A
330
1
100
AcDbSymbolTableRecord
100
AcDbBlockTableRecord
2
*D12
70
0
280
1
281
0
0
BLOCK_RECORD
5
4D
330
1
100
AcDbSymbolTableRecord
100
AcDbBlockTableRecord
2
*D13
70
0
280
1
281
0
0
BLOCK_RECORD
5
50
330
1
100
AcDbSymbolTableRecord
100
AcDbBlockTableRecord
2
*D16
70
0
280
1
281
0
0
BLOCK_RECORD
5
53
330
1
100
AcDbSymbolTableRecord
100
AcDbBlockTableRecord
2
*D1
70
0
280
1
281
0
0
BLOCK_RECORD
5
56
330
1
100
AcDbSymbolTableRecord
100
AcDbBlockTableRecord
2
*D2
70
0
280
1
281
0
0
BLOCK_RECORD
5
59
330
1
100
AcDbSymbolTableRecord
100
AcDbBlockTableRecord
2
*D5
70
0
280
1
281
0
0
BLOCK_RECORD
5
5C
330
1
100
AcDbSymbolTableRecord
100
AcDbBlockTableRecord
2
*D15
70
0
280
1
281
0
0
BLOCK_RECORD
5
5F
330
1
100
AcDbSymbolTableRecord
100
AcDbBlockTableRecord
2
*D7
70
0
280
1
281
0
0
BLOCK_RECORD
5
62
330
1
100
AcDbSymbolTableRecord
100
AcDbBlockTableRecord
2
*D17
70
0
280
1
281
0
0
BLOCK_RECORD
5
65
330
1
100
AcDbSymbolTableRecord
100
AcDbBlockTableRecord
2
*D11
70
0
280
1
281
0
0
BLOCK_RECORD
5
68
330
1
100
AcDbSymbolTableRecord
100
AcDbBlockTableRecord
2
*D14
70
0
280
1
281
0
0
BLOCK_RECORD
5
6B
330
1
100
AcDbSymbolTableRecord
100
AcDbBlockTableRecord
2
*D4
70
0
280
1
281
0
0
BLOCK_RECORD
5
6E
330
1
100
AcDbSymbolTableRecord
100
AcDbBlockTableRecord
2
*D18
70
0
280
1
281
0
0
BLOCK_RECORD
5
71
330
1
100
AcDbSymbolTableRecord
100
AcDbBlockTableRecord
2
*D19
70
0
280
1
281
0
0
BLOCK_RECORD
5
74
330
1
100
AcDbSymbolTableRecord
100
AcDbBlockTableRecord
2
*D9
70
0
280
1
281
0
0
BLOCK_RECORD
5
77
330
1
100
AcDbSymbolTableRecord
100
AcDbBlockTableRecord
2
*D10
70
0
280
1
281
0
0
BLOCK_RECORD
5
7A
330
1
100
AcDbSymbolTableRecord
100
AcDbBlockTableRecord
2
*D3
70
0
280
1
281
0
0
BLOCK_RECORD
5
7D
330
1
100
AcDbSymbolTableRecord
100
AcDbBlockTableRecord
2
*D6
70
0
280
1
281
0
0
BLOCK_RECORD
5
80
330
1
100
AcDbSymbolTableRecord
100
AcDbBlockTableRecord
2
*D8
70
0
280
1
281
0
0
ENDTAB
0
ENDSEC
0
SECTION
2
BLOCKS
0
BLOCK
5
20
330
1F
100
AcDbEntity
8
0
100
AcDbBlockBegin
2
*Model_Space
70
0
10
0
20
0
30
0
3
*Model_Space
1

0
ENDBLK
5
21
330
1F
100
AcDbEntity
8
0
100
AcDbBlockEnd
0
BLOCK
5
1C
330
1B
100
AcDbEntity
8
0
100
AcDbBlockBegin
2
*Paper_Space
70
0
10
0
20
0
30
0
3
*Paper_Space
1

0
ENDBLK
5
1D
330
1F
100
AcDbEntity
8
0
100
AcDbBlockEnd
0
BLOCK
5
4B
330
4A
100
AcDbEntity
8
0
100
AcDbBlockBegin
2
*D12
70
1
10
0
20
0
3
*D12
1

0
LINE
5
83
100
AcDbEntity
8
sizes
6
CONTINUOUS
62
7
370
0
100
AcDbLine
10
-20
20
220
11
-20
21
209
0
SOLID
5
84
100
AcDbEntity
8
sizes
6
CONTINUOUS
62
7
370
0
100
AcDbTrace
10
-20
20
220
30
0
11
-19.5837153422
21
217.5
31
0
12
-20.4162846578
22
217.5
32
0
13
-20.4162846578
23
217.5
33
0
0
SOLID
5
85
100
AcDbEntity
8
sizes
6
CONTINUOUS
62
7
370
0
100
AcDbTrace
10
-20
20
209
30
0
11
-20.4162846578
21
211.5
31
0
12
-19.5837153422
22
211.5
32
0
13
-19.5837153422
23
211.5
33
0
0
MTEXT
5
86
100
AcDbEntity
8
sizes
6
CONTINUOUS
62
7
370
0
100
AcDbMText
10
-21.875
20
214.5
30
0
40
2.5
41
1.94444444444
71
5
72
1
1
11
7
standard
210
0
220
0
230
1
50
90
73
2
44
1
0
LINE
5
87
100
AcDbEntity
8
sizes
6
CONTINUOUS
62
7
370
0
100
AcDbLine
10
-0.625
20
220
11
-21.25
21
220
0
LINE
5
88
100
AcDbEntity
8
sizes
6
CONTINUOUS
62
7
370
0
100
AcDbLine
10
22.625
20
209
11
-21.25
21
209
0
ENDBLK
5
4C
330
4A
100
AcDbEntity
8
0
100
AcDbBlockEnd
0
BLOCK
5
4E
330
4D
100
AcDbEntity
8
0
100
AcDbBlockBegin
2
*D13
70
1
10
0
20
0
3
*D13
1

0
LINE
5
89
100
AcDbEntity
8
sizes
6
CONTINUOUS
62
7
370
0
100
AcDbLine
10
-20
20
209
11
-20
21
182
0
SOLID
5
8A
100
AcDbEntity
8
sizes
6
CONTINUOUS
62
7
370
0
100
AcDbTrace
10
-20
20
209
30
0
11
-19.5837153422
21
206.5
31
0
12
-20.4162846578
22
206.5
32
0
13
-20.4162846578
23
206.5
33
0
0
SOLID
5
8B
100
AcDbEntity
8
sizes
6
CONTINUOUS
62
7
370
0
100
AcDbTrace
10
-20
20
182
30
0
11
-20.4162846578
21
184.5
31
0
12
-19.5837153422
22
184.5
32
0
13
-19.5837153422
23
184.5
33
0
0
MTEXT
5
8C
100
AcDbEntity
8
sizes
6
CONTINUOUS
62
7
370
0
100
AcDbMText
10
-21.875
20
195.5
30
0
40
2.5
41
3.05555555556
71
5
72
1
1
27
7
standard
210
0
220
0
230
1
50
90
73
2
44
1
0
LINE
5
8D
100
AcDbEntity
8
sizes
6
CONTINUOUS
62
7
370
0
100
AcDbLine
10
22.625
20
209
11
-21.25
21
209
0
LINE
5
8E
100
AcDbEntity
8
sizes
6
CONTINUOUS
62
7
370
0
100
AcDbLine
10
22.625
20
182
11
-21.25
21
182
0
ENDBLK
5
4F
330
4D
100
AcDbEntity
8
0
100
AcDbBlockEnd
0
BLOCK
5
51
330
50
100
AcDbEntity
8
0
100
AcDbBlockBegin
2
*D16
70
1
10
0
20
0
3
*D16
1

0
LINE
5
8F
100
AcDbEntity
8
sizes
6
CONTINUOUS
62
7
370
0
100
AcDbLine
10
220
20
-57
11
220
21
-40
0
SOLID
5
90
100
AcDbEntity
8
sizes
6
CONTINUOUS
62
7
370
0
100
AcDbTrace
10
220
20
-57
30
0
11
219.583715342
21
-54.5
31
0
12
220.416284658
22
-54.5
32
0
13
220.416284658
23
-54.5
33
0
0
SOLID
5
91
100
AcDbEntity
8
sizes
6
CONTINUOUS
62
7
370
0
100
AcDbTrace
10
220
20
-40
30
0
11
220.416284658
21
-42.5
31
0
12
219.583715342
22
-42.5
32
0
13
219.583715342
23
-42.5
33
0
0
MTEXT
5
92
100
AcDbEntity
8
sizes
6
CONTINUOUS
62
7
370
0
100
AcDbMText
10
218.125
20
-48.5
30
0
40
2.5
41
2.5
71
5
72
1
1
17
7
standard
210
0
220
0
230
1
50
90
73
2
44
1
0
LINE
5
93
100
AcDbEntity
8
sizes
6
CONTINUOUS
62
7
370
0
100
AcDbLine
10
128.225
20
-57
11
221.25
21
-57
0
LINE
5
94
100
AcDbEntity
8
sizes
6
CONTINUOUS
62
7
370
0
100
AcDbLine
10
187.625
20
-40
11
221.25
21
-40
0
ENDBLK
5
52
330
50
100
AcDbEntity
8
0
100
AcDbBlockEnd
0
BLOCK
5
54
330
53
100
AcDbEntity
8
0
100
AcDbBlockBegin
2
*D1
70
1
10
0
20
0
3
*D1
1

0
LINE
5
95
100
AcDbEntity
8
sizes
6
CONTINUOUS
62
7
370
0
100
AcDbLine
10
271
20
-10
11
281
21
-10
0
SOLID
5
96
100
AcDbEntity
8
sizes
6
CONTINUOUS
62
7
370
0
100
AcDbTrace
10
271
20
-10
30
0
11
273.5
21
-9.58371534223
31
0
12
273.5
22
-10.4162846578
32
0
13
273.5
23
-10.4162846578
33
0
0
SOLID
5
97
100
AcDbEntity
8
sizes
6
CONTINUOUS
62
7
370
0
100
AcDbTrace
10
281
20
-10
30
0
11
278.5
21
-10.4162846578
31
0
12
278.5
22
-9.58371534223
32
0
13
278.5
23
-9.58371534223
33
0
0
MTEXT
5
98
100
AcDbEntity
8
sizes
6
CONTINUOUS
62
7
370
0
100
AcDbMText
10
276
20
-8.125
30
0
40
2.5
41
2.5
71
5
72
1
1
10
7
standard
210
0
220
0
230
1
50
0
73
2
44
1
0
LINE
5
99
100
AcDbEntity
8
sizes
6
CONTINUOUS
62
7
370
0
100
AcDbLine
10
271
20
16.875
11
271
21
-11.25
0
LINE
5
9A
100
AcDbEntity
8
sizes
6
CONTINUOUS
62
7
370
0
100
AcDbLine
10
281
20
16.875
11
281
21
-11.25
0
ENDBLK
5
55
330
53
100
AcDbEntity
8
0
100
AcDbBlockEnd
0
BLOCK
5
57
330
56
100
AcDbEntity
8
0
100
AcDbBlockBegin
2
*D2
70
1
10
0
20
0
3
*D2
1

0
LINE
5
9B
100
AcDbEntity
8
sizes
6
CONTINUOUS
62
7
370
0
100
AcDbLine
10
281
20
-10
11
302.5
21
-10
0
SOLID
5
9C
100
AcDbEntity
8
sizes
6
CONTINUOUS
62
7
370
0
100
AcDbTrace
10
281
20
-10
30
0
11
283.5
21
-9.58371534223
31
0
12
283.5
22
-10.4162846578
32
0
13
283.5
23
-10.4162846578
33
0
0
SOLID
5
9D
100
AcDbEntity
8
sizes
6
CONTINUOUS
62
7
370
0
100
AcDbTrace
10
302.5
20
-10
30
0
11
300
21
-10.4162846578
31
0
12
300
22
-9.58371534223
32
0
13
300
23
-9.58371534223
33
0
0
MTEXT
5
9E
100
AcDbEntity
8
sizes
6
CONTINUOUS
62
7
370
0
100
AcDbMText
10
291.75
20
-8.125
30
0
40
2.5
41
5.27777777778
71
5
72
1
1
21.5
7
standard
210
0
220
0
230
1
50
0
73
2
44
1
0
LINE
5
9F
100
AcDbEntity
8
sizes
6
CONTINUOUS
62
7
370
0
100
AcDbLine
10
281
20
26.375
11
281
21
-11.25
0
LINE
5
A0
100
AcDbEntity
8
sizes
6
CONTINUOUS
62
7
370
0
100
AcDbLine
10
302.5
20
26.375
11
302.5
21
-11.25
0
ENDBLK
5
58
330
56
100
AcDbEntity
8
0
100
AcDbBlockEnd
0
BLOCK
5
5A
330
59
100
AcDbEntity
8
0
100
AcDbBlockBegin
2
*D5
70
1
10
0
20
0
3
*D5
1

0
LINE
5
A1
100
AcDbEntity
8
sizes
6
CONTINUOUS
62
7
370
0
100
AcDbLine
10
330
20
12
11
330
21
42
0
SOLID
5
A2
100
AcDbEntity
8
sizes
6
CONTINUOUS
62
7
370
0
100
AcDbTrace
10
330
20
12
30
0
11
329.583715342
21
14.5
31
0
12
330.416284658
22
14.5
32
0
13
330.416284658
23
14.5
33
0
0
SOLID
5
A3
100
AcDbEntity
8
sizes
6
CONTINUOUS
62
7
370
0
100
AcDbTrace
10
330
20
42
30
0
11
330.416284658
21
39.5
31
0
12
329.583715342
22
39.5
32
0
13
329.583715342
23
39.5
33
0
0
MTEXT
5
A4
100
AcDbEntity
8
sizes
6
CONTINUOUS
62
7
370
0
100
AcDbMText
10
328.125
20
27
30
0
40
2.5
41
3.05555555556
71
5
72
1
1
30
7
standard
210
0
220
0
230
1
50
90
73
2
44
1
0
LINE
5
A5
100
AcDbEntity
8
sizes
6
CONTINUOUS
62
7
370
0
100
AcDbLine
10
279.625
20
12
11
331.25
21
12
0
LINE
5
A6
100
AcDbEntity
8
sizes
6
CONTINUOUS
62
7
370
0
100
AcDbLine
10
279.625
20
42
11
331.25
21
42
0
ENDBLK
5
5B
330
59
100
AcDbEntity
8
0
100
AcDbBlockEnd
0
BLOCK
5
5D
330
5C
100
AcDbEntity
8
0
100
AcDbBlockBegin
2
*D15
70
1
10
0
20
0
3
*D15
1

0
LINE
5
A7
100
AcDbEntity
8
sizes
6
CONTINUOUS
62
7
370
0
100
AcDbLine
10
23.25
20
230
11
70.25
21
230
0
SOLID
5
A8
100
AcDbEntity
8
sizes
6
CONTINUOUS
62
7
370
0
100
AcDbTrace
10
23.25
20
230
30
0
11
25.75
21
230.416284658
31
0
12
25.75
22
229.583715342
32
0
13
25.75
23
229.583715342
33
0
0
SOLID
5
A9
100
AcDbEntity
8
sizes
6
CONTINUOUS
62
7
370
0
100
AcDbTrace
10
70.25
20
230
30
0
11
67.75
21
229.583715342
31
0
12
67.75
22
230.416284658
32
0
13
67.75
23
230.416284658
33
0
0
MTEXT
5
AA
100
AcDbEntity
8
sizes
6
CONTINUOUS
62
7
370
0
100
AcDbMText
10
46.75
20
231.875
30
0
40
2.5
41
3.33333333333
71
5
72
1
1
47
7
standard
210
0
220
0
230
1
50
0
73
2
44
1
0
LINE
5
AB
100
AcDbEntity
8
sizes
6
CONTINUOUS
62
7
370
0
100
AcDbLine
10
23.25
20
209.625
11
23.25
21
231.25
0
LINE
5
AC
100
AcDbEntity
8
sizes
6
CONTINUOUS
62
7
370
0
100
AcDbLine
10
70.25
20
209.625
11
70.25
21
231.25
0
ENDBLK
5
5E
330
5C
100
AcDbEntity
8
0
100
AcDbBlockEnd
0
BLOCK
5
60
330
5F
100
AcDbEntity
8
0
100
AcDbBlockBegin
2
*D7
70
1
10
0
20
0
3
*D7
1

0
LINE
5
AD
100
AcDbEntity
8
sizes
6
CONTINUOUS
62
7
370
0
100
AcDbLine
10
268
20
-5
11
284
21
-5
0
SOLID
5
AE
100
AcDbEntity
8
sizes
6
CONTINUOUS
62
7
370
0
100
AcDbTrace
10
273
20
-5
30
0
11
270.5
21
-5.41628465777
31
0
12
270.5
22
-4.58371534223
32
0
13
270.5
23
-4.58371534223
33
0
0
SOLID
5
AF
100
AcDbEntity
8
sizes
6
CONTINUOUS
62
7
370
0
100
AcDbTrace
10
279
20
-5
30
0
11
281.5
21
-4.58371534223
31
0
12
281.5
22
-5.41628465777
32
0
13
281.5
23
-5.41628465777
33
0
0
MTEXT
5
B0
100
AcDbEntity
8
sizes
6
CONTINUOUS
62
7
370
0
100
AcDbMText
10
276
20
-3.125
30
0
40
2.5
41
1.11111111111
71
5
72
1
1
6
7
standard
210
0
220
0
230
1
50
0
73
2
44
1
0
LINE
5
B1
100
AcDbEntity
8
sizes
6
CONTINUOUS
62
7
370
0
100
AcDbLine
10
273
20
11.375
11
273
21
-6.25
0
LINE
5
B2
100
AcDbEntity
8
sizes
6
CONTINUOUS
62
7
370
0
100
AcDbLine
10
279
20
11.375
11
279
21
-6.25
0
ENDBLK
5
61
330
5F
100
AcDbEntity
8
0
100
AcDbBlockEnd
0
BLOCK
5
63
330
62
100
AcDbEntity
8
0
100
AcDbBlockBegin
2
*D17
70
1
10
0
20
0
3
*D17
1

0
LINE
5
B3
100
AcDbEntity
8
sizes
6
CONTINUOUS
62
7
370
0
100
AcDbLine
10
127.1
20
-30
11
134.6
21
-30
0
SOLID
5
B4
100
AcDbEntity
8
sizes
6
CONTINUOUS
62
7
370
0
100
AcDbTrace
10
127.1
20
-30
30
0
11
129.6
21
-29.5837153422
31
0
12
129.6
22
-30.4162846578
32
0
13
129.6
23
-30.4162846578
33
0
0
SOLID
5
B5
100
AcDbEntity
8
sizes
6
CONTINUOUS
62
7
370
0
100
AcDbTrace
10
134.6
20
-30
30
0
11
132.1
21
-30.4162846578
31
0
12
132.1
22
-29.5837153422
32
0
13
132.1
23
-29.5837153422
33
0
0
MTEXT
5
B6
100
AcDbEntity
8
sizes
6
CONTINUOUS
62
7
370
0
100
AcDbMText
10
130.85
20
-28.125
30
0
40
2.5
41
3.88888888889
71
5
72
1
1
7.5
7
standard
210
0
220
0
230
1
50
0
73
2
44
1
0
LINE
5
B7
100
AcDbEntity
8
sizes
6
CONTINUOUS
62
7
370
0
100
AcDbLine
10
127.1
20
-56.375
11
127.1
21
-28.75
0
LINE
5
B8
100
AcDbEntity
8
sizes
6
CONTINUOUS
62
7
370
0
100
AcDbLine
10
134.6
20
-56.375
11
134.6
21
-28.75
0
ENDBLK
5
64
330
62
100
AcDbEntity
8
0
100
AcDbBlockEnd
0
BLOCK
5
66
330
65
100
AcDbEntity
8
0
100
AcDbBlockBegin
2
*D11
70
1
10
0
20
0
3
*D11
1

0
LINE
5
B9
100
AcDbEntity
8
sizes
6
CONTINUOUS
62
7
370
0
100
AcDbLine
10
3.5527136788e-15
20
-110
11
24.25
21
-110
0
SOLID
5
BA
100
AcDbEntity
8
sizes
6
CONTINUOUS
62
7
370
0
100
AcDbTrace
10
3.5527136788e-15
20
-110
30
0
11
2.5
21
-109.583715342
31
0
12
2.5
22
-110.416284658
32
0
13
2.5
23
-110.416284658
33
0
0
SOLID
5
BB
100
AcDbEntity
8
sizes
6
CONTINUOUS
62
7
370
0
100
AcDbTrace
10
24.25
20
-110
30
0
11
21.75
21
-110.416284658
31
0
12
21.75
22
-109.583715342
32
0
13
21.75
23
-109.583715342
33
0
0
MTEXT
5
BC
100
AcDbEntity
8
sizes
6
CONTINUOUS
62
7
370
0
100
AcDbMText
10
12.125
20
-108.125
30
0
40
2.5
41
8.05555555556
71
5
72
1
1
24.25
7
standard
210
0
220
0
230
1
50
0
73
2
44
1
0
LINE
5
BD
100
AcDbEntity
8
sizes
6
CONTINUOUS
62
7
370
0
100
AcDbLine
10
-1.1481063742e-16
20
-40.625
11
3.32309240396e-15
21
-111.25
0
LINE
5
BE
100
AcDbEntity
8
sizes
6
CONTINUOUS
62
7
370
0
100
AcDbLine
10
24.25
20
-76.625
11
24.25
21
-111.25
0
ENDBLK
5
67
330
65
100
AcDbEntity
8
0
100
AcDbBlockEnd
0
BLOCK
5
69
330
68
100
AcDbEntity
8
0
100
AcDbBlockBegin
2
*D14
70
1
10
0
20
0
3
*D14
1

0
LINE
5
BF
100
AcDbEntity
8
sizes
6
CONTINUOUS
62
7
370
0
100
AcDbLine
10
0
20
230
11
23.25
21
230
0
SOLID
5
C0
100
AcDbEntity
8
sizes
6
CONTINUOUS
62
7
370
0
100
AcDbTrace
10
0
20
230
30
0
11
2.5
21
230.416284658
31
0
12
2.5
22
229.583715342
32
0
13
2.5
23
229.583715342
33
0
0
SOLID
5
C1
100
AcDbEntity
8
sizes
6
CONTINUOUS
62
7
370
0
100
AcDbTrace
10
23.25
20
230
30
0
11
20.75
21
229.583715342
31
0
12
20.75
22
230.416284658
32
0
13
20.75
23
230.416284658
33
0
0
MTEXT
5
C2
100
AcDbEntity
8
sizes
6
CONTINUOUS
62
7
370
0
100
AcDbMText
10
11.625
20
231.875
30
0
40
2.5
41
7.77777777778
71
5
72
1
1
23.25
7
standard
210
0
220
0
230
1
50
0
73
2
44
1
0
LINE
5
C3
100
AcDbEntity
8
sizes
6
CONTINUOUS
62
7
370
0
100
AcDbLine
10
3.82702124734e-17
20
220.625
11
7.65404249467e-17
21
231.25
0
LINE
5
C4
100
AcDbEntity
8
sizes
6
CONTINUOUS
62
7
370
0
100
AcDbLine
10
23.25
20
209.625
11
23.25
21
231.25
0
ENDBLK
5
6A
330
68
100
AcDbEntity
8
0
100
AcDbBlockEnd
0
BLOCK
5
6C
330
6B
100
AcDbEntity
8
0
100
AcDbBlockBegin
2
*D4
70
1
10
0
20
0
3
*D4
1

0
LINE
5
C5
100
AcDbEntity
8
sizes
6
CONTINUOUS
62
7
370
0
100
AcDbLine
10
250
20
-10
11
271
21
-10
0
SOLID
5
C6
100
AcDbEntity
8
sizes
6
CONTINUOUS
62
7
370
0
100
AcDbTrace
10
250
20
-10
30
0
11
252.5
21
-9.58371534223
31
0
12
252.5
22
-10.4162846578
32
0
13
252.5
23
-10.4162846578
33
0
0
SOLID
5
C7
100
AcDbEntity
8
sizes
6
CONTINUOUS
62
7
370
0
100
AcDbTrace
10
271
20
-10
30
0
11
268.5
21
-10.4162846578
31
0
12
268.5
22
-9.58371534223
32
0
13
268.5
23
-9.58371534223
33
0
0
MTEXT
5
C8
100
AcDbEntity
8
sizes
6
CONTINUOUS
62
7
370
0
100
AcDbMText
10
260.5
20
-8.125
30
0
40
2.5
41
2.5
71
5
72
1
1
21
7
standard
210
0
220
0
230
1
50
0
73
2
44
1
0
LINE
5
C9
100
AcDbEntity
8
sizes
6
CONTINUOUS
62
7
370
0
100
AcDbLine
10
250
20
-0.625
11
250
21
-11.25
0
LINE
5
CA
100
AcDbEntity
8
sizes
6
CONTINUOUS
62
7
370
0
100
AcDbLine
10
271
20
16.875
11
271
21
-11.25
0
ENDBLK
5
6D
330
6B
100
AcDbEntity
8
0
100
AcDbBlockEnd
0
BLOCK
5
6F
330
6E
100
AcDbEntity
8
0
100
AcDbBlockBegin
2
*D18
70
1
10
0
20
0
3
*D18
1

0
LINE
5
CB
100
AcDbEntity
8
sizes
6
CONTINUOUS
62
7
370
0
100
AcDbLine
10
134.6
20
-30
11
187
21
-30
0
SOLID
5
CC
100
AcDbEntity
8
sizes
6
CONTINUOUS
62
7
370
0
100
AcDbTrace
10
134.6
20
-30
30
0
11
137.1
21
-29.5837153422
31
0
12
137.1
22
-30.4162846578
32
0
13
137.1
23
-30.4162846578
33
0
0
SOLID
5
CD
100
AcDbEntity
8
sizes
6
CONTINUOUS
62
7
370
0
100
AcDbTrace
10
187
20
-30
30
0
11
184.5
21
-30.4162846578
31
0
12
184.5
22
-29.5837153422
32
0
13
184.5
23
-29.5837153422
33
0
0
MTEXT
5
CE
100
AcDbEntity
8
sizes
6
CONTINUOUS
62
7
370
0
100
AcDbMText
10
160.8
20
-28.125
30
0
40
2.5
41
6.11111111111
71
5
72
1
1
52.4
7
standard
210
0
220
0
230
1
50
0
73
2
44
1
0
LINE
5
CF
100
AcDbEntity
8
sizes
6
CONTINUOUS
62
7
370
0
100
AcDbLine
10
134.6
20
-56.375
11
134.6
21
-28.75
0
LINE
5
D0
100
AcDbEntity
8
sizes
6
CONTINUOUS
62
7
370
0
100
AcDbLine
10
187
20
-39.375
11
187
21
-28.75
0
ENDBLK
5
70
330
6E
100
AcDbEntity
8
0
100
AcDbBlockEnd
0
BLOCK
5
72
330
71
100
AcDbEntity
8
0
100
AcDbBlockBegin
2
*D19
70
1
10
0
20
0
3
*D19
1

0
LINE
5
D1
100
AcDbEntity
8
sizes
6
CONTINUOUS
62
7
370
0
100
AcDbLine
10
220
20
-57
11
220
21
-92.5
0
SOLID
5
D2
100
AcDbEntity
8
sizes
6
CONTINUOUS
62
7
370
0
100
AcDbTrace
10
220
20
-57
30
0
11
220.416284658
21
-59.5
31
0
12
219.583715342
22
-59.5
32
0
13
219.583715342
23
-59.5
33
0
0
SOLID
5
D3
100
AcDbEntity
8
sizes
6
CONTINUOUS
62
7
370
0
100
AcDbTrace
10
220
20
-92.5
30
0
11
219.583715342
21
-90
31
0
12
220.416284658
22
-90
32
0
13
220.416284658
23
-90
33
0
0
MTEXT
5
D4
100
AcDbEntity
8
sizes
6
CONTINUOUS
62
7
370
0
100
AcDbMText
10
218.125
20
-74.75
30
0
40
2.5
41
5.83333333333
71
5
72
1
1
35.5
7
standard
210
0
220
0
230
1
50
90
73
2
44
1
0
LINE
5
D5
100
AcDbEntity
8
sizes
6
CONTINUOUS
62
7
370
0
100
AcDbLine
10
135.225
20
-57
11
221.25
21
-57
0
LINE
5
D6
100
AcDbEntity
8
sizes
6
CONTINUOUS
62
7
370
0
100
AcDbLine
10
187.625
20
-92.5
11
221.25
21
-92.5
0
ENDBLK
5
73
330
71
100
AcDbEntity
8
0
100
AcDbBlockEnd
0
BLOCK
5
75
330
74
100
AcDbEntity
8
0
100
AcDbBlockBegin
2
*D9
70
1
10
0
20
0
3
*D9
1

0
LINE
5
D7
100
AcDbEntity
8
sizes
6
CONTINUOUS
62
7
370
0
100
AcDbLine
10
-10
20
-40
11
-10
21
-50
0
SOLID
5
D8
100
AcDbEntity
8
sizes
6
CONTINUOUS
62
7
370
0
100
AcDbTrace
10
-10
20
-40
30
0
11
-9.58371534223
21
-42.5
31
0
12
-10.4162846578
22
-42.5
32
0
13
-10.4162846578
23
-42.5
33
0
0
SOLID
5
D9
100
AcDbEntity
8
sizes
6
CONTINUOUS
62
7
370
0
100
AcDbTrace
10
-10
20
-50
30
0
11
-10.4162846578
21
-47.5
31
0
12
-9.58371534223
22
-47.5
32
0
13
-9.58371534223
23
-47.5
33
0
0
MTEXT
5
DA
100
AcDbEntity
8
sizes
6
CONTINUOUS
62
7
370
0
100
AcDbMText
10
-11.875
20
-45
30
0
40
2.5
41
2.5
71
5
72
1
1
10
7
standard
210
0
220
0
230
1
50
90
73
2
44
1
0
LINE
5
DB
100
AcDbEntity
8
sizes
6
CONTINUOUS
62
7
370
0
100
AcDbLine
10
-0.625
20
-40
11
-11.25
21
-40
0
LINE
5
DC
100
AcDbEntity
8
sizes
6
CONTINUOUS
62
7
370
0
100
AcDbLine
10
23.625
20
-50
11
-11.25
21
-50
0
ENDBLK
5
76
330
74
100
AcDbEntity
8
0
100
AcDbBlockEnd
0
BLOCK
5
78
330
77
100
AcDbEntity
8
0
100
AcDbBlockBegin
2
*D10
70
1
10
0
20
0
3
*D10
1

0
LINE
5
DD
100
AcDbEntity
8
sizes
6
CONTINUOUS
62
7
370
0
100
AcDbLine
10
-10
20
-50
11
-10
21
-76
0
SOLID
5
DE
100
AcDbEntity
8
sizes
6
CONTINUOUS
62
7
370
0
100
AcDbTrace
10
-10
20
-50
30
0
11
-9.58371534223
21
-52.5
31
0
12
-10.4162846578
22
-52.5
32
0
13
-10.4162846578
23
-52.5
33
0
0
SOLID
5
DF
100
AcDbEntity
8
sizes
6
CONTINUOUS
62
7
370
0
100
AcDbTrace
10
-10
20
-76
30
0
11
-10.4162846578
21
-73.5
31
0
12
-9.58371534223
22
-73.5
32
0
13
-9.58371534223
23
-73.5
33
0
0
MTEXT
5
E0
100
AcDbEntity
8
sizes
6
CONTINUOUS
62
7
370
0
100
AcDbMText
10
-11.875
20
-63
30
0
40
2.5
41
3.05555555556
71
5
72
1
1
26
7
standard
210
0
220
0
230
1
50
90
73
2
44
1
0
LINE
5
E1
100
AcDbEntity
8
sizes
6
CONTINUOUS
62
7
370
0
100
AcDbLine
10
23.625
20
-50
11
-11.25
21
-50
0
LINE
5
E2
100
AcDbEntity
8
sizes
6
CONTINUOUS
62
7
370
0
100
AcDbLine
10
23.625
20
-76
11
-11.25
21
-76
0
ENDBLK
5
79
330
77
100
AcDbEntity
8
0
100
AcDbBlockEnd
0
BLOCK
5
7B
330
7A
100
AcDbEntity
8
0
100
AcDbBlockBegin
2
*D3
70
1
10
0
20
0
3
*D3
1

0
LINE
5
E3
100
AcDbEntity
8
sizes
6
CONTINUOUS
62
7
370
0
100
AcDbLine
10
330
20
12
11
330
21
0
0
SOLID
5
E4
100
AcDbEntity
8
sizes
6
CONTINUOUS
62
7
370
0
100
AcDbTrace
10
330
20
12
30
0
11
330.416284658
21
9.5
31
0
12
329.583715342
22
9.5
32
0
13
329.583715342
23
9.5
33
0
0
SOLID
5
E5
100
AcDbEntity
8
sizes
6
CONTINUOUS
62
7
370
0
100
AcDbTrace
10
330
20
0
30
0
11
329.583715342
21
2.5
31
0
12
330.416284658
22
2.5
32
0
13
330.416284658
23
2.5
33
0
0
MTEXT
5
E6
100
AcDbEntity
8
sizes
6
CONTINUOUS
62
7
370
0
100
AcDbMText
10
328.125
20
6
30
0
40
2.5
41
2.5
71
5
72
1
1
12
7
standard
210
0
220
0
230
1
50
90
73
2
44
1
0
LINE
5
E7
100
AcDbEntity
8
sizes
6
CONTINUOUS
62
7
370
0
100
AcDbLine
10
279.625
20
12
11
331.25
21
12
0
LINE
5
E8
100
AcDbEntity
8
sizes
6
CONTINUOUS
62
7
370
0
100
AcDbLine
10
303.125
20
0
11
331.25
21
0
0
ENDBLK
5
7C
330
7A
100
AcDbEntity
8
0
100
AcDbBlockEnd
0
BLOCK
5
7E
330
7D
100
AcDbEntity
8
0
100
AcDbBlockBegin
2
*D6
70
1
10
0
20
0
3
*D6
1

0
LINE
5
E9
100
AcDbEntity
8
sizes
6
CONTINUOUS
62
7
370
0
100
AcDbLine
10
320
20
17.5
11
320
21
36.5
0
SOLID
5
EA
100
AcDbEntity
8
sizes
6
CONTINUOUS
62
7
370
0
100
AcDbTrace
10
320
20
17.5
30
0
11
319.583715342
21
20
31
0
12
320.416284658
22
20
32
0
13
320.416284658
23
20
33
0
0
SOLID
5
EB
100
AcDbEntity
8
sizes
6
CONTINUOUS
62
7
370
0
100
AcDbTrace
10
320
20
36.5
30
0
11
320.416284658
21
34
31
0
12
319.583715342
22
34
32
0
13
319.583715342
23
34
33
0
0
MTEXT
5
EC
100
AcDbEntity
8
sizes
6
CONTINUOUS
62
7
370
0
100
AcDbMText
10
318.125
20
27
30
0
40
2.5
41
2.5
71
5
72
1
1
19
7
standard
210
0
220
0
230
1
50
90
73
2
44
1
0
LINE
5
ED
100
AcDbEntity
8
sizes
6
CONTINUOUS
62
7
370
0
100
AcDbLine
10
281.625
20
17.5
11
321.25
21
17.5
0
LINE
5
EE
100
AcDbEntity
8
sizes
6
CONTINUOUS
62
7
370
0
100
AcDbLine
10
281.625
20
36.5
11
321.25
21
36.5
0
ENDBLK
5
7F
330
7D
100
AcDbEntity
8
0
100
AcDbBlockEnd
0
BLOCK
5
81
330
80
100
AcDbEntity
8
0
100
AcDbBlockBegin
2
*D8
70
1
10
0
20
0
3
*D8
1

0
LINE
5
EF
100
AcDbEntity
8
sizes
6
CONTINUOUS
62
7
370
0
100
AcDbLine
10
24.25
20
-110
11
69.25
21
-110
0
SOLID
5
F0
100
AcDbEntity
8
sizes
6
CONTINUOUS
62
7
370
0
100
AcDbTrace
10
24.25
20
-110
30
0
11
26.75
21
-109.583715342
31
0
12
26.75
22
-110.416284658
32
0
13
26.75
23
-110.416284658
33
0
0
SOLID
5
F1
100
AcDbEntity
8
sizes
6
CONTINUOUS
62
7
370
0
100
AcDbTrace
10
69.25
20
-110
30
0
11
66.75
21
-110.416284658
31
0
12
66.75
22
-109.583715342
32
0
13
66.75
23
-109.583715342
33
0
0
MTEXT
5
F2
100
AcDbEntity
8
sizes
6
CONTINUOUS
62
7
370
0
100
AcDbMText
10
46.75
20
-108.125
30
0
40
2.5
41
3.33333333333
71
5
72
1
1
45
7
standard
210
0
220
0
230
1
50
0
73
2
44
1
0
LINE
5
F3
100
AcDbEntity
8
sizes
6
CONTINUOUS
62
7
370
0
100
AcDbLine
10
24.25
20
-76.625
11
24.25
21
-111.25
0
LINE
5
F4
100
AcDbEntity
8
sizes
6
CONTINUOUS
62
7
370
0
100
AcDbLine
10
69.25
20
-76.625
11
69.25
21
-111.25
0
ENDBLK
5
82
330
80
100
AcDbEntity
8
0
100
AcDbBlockEnd
0
ENDSEC
0
SECTION
2
ENTITIES
0
LINE
5
F5
100
AcDbEntity
8
0
6
ByLayer
62
256
370
-1
100
AcDbLine
10
187
20
0
11
187
21
118
0
LINE
5
F6
100
AcDbEntity
8
0
6
ByLayer
62
256
370
-1
100
AcDbLine
10
187
20
118
11
0
21
118
0
LINE
5
F7
100
AcDbEntity
8
0
6
ByLayer
62
256
370
-1
100
AcDbLine
10
0
20
118
11
0
21
0
0
LINE
5
F8
100
AcDbEntity
8
0
6
ByLayer
62
256
370
-1
100
AcDbLine
10
93.5
20
118
11
93.5
21
-82
0
LINE
5
F9
100
AcDbEntity
8
0
6
ByLayer
62
256
370
-1
100
AcDbLine
10
187
20
59
11
-113
21
59
0
LINE
5
FA
100
AcDbEntity
8
0
6
ByLayer
62
256
370
-1
100
AcDbLine
10
2.4
20
115.6
11
2.4
21
2.4
0
LINE
5
FB
100
AcDbEntity
8
0
6
ByLayer
62
256
370
-1
100
AcDbLine
10
2.4
20
115.6
11
184.6
21
115.6
0
LINE
5
FC
100
AcDbEntity
8
0
6
ByLayer
62
256
370
-1
100
AcDbLine
10
2.4
20
2.4
11
184.6
21
2.4
0
CIRCLE
5
FD
100
AcDbEntity
8
0
6
ByLayer
62
256
370
-1
100
AcDbCircle
10
4.6
20
113.4
40
2
0
CIRCLE
5
FE
100
AcDbEntity
8
0
6
ByLayer
62
256
370
-1
100
AcDbCircle
10
182.4
20
113.4
40
2
0
CIRCLE
5
FF
100
AcDbEntity
8
0
6
ByLayer
62
256
370
-1
100
AcDbCircle
10
4.6
20
4.6
40
2
0
CIRCLE
5
100
100
AcDbEntity
8
0
6
ByLayer
62
256
370
-1
100
AcDbCircle
10
182.4
20
4.6
40
2
0
LINE
5
101
100
AcDbEntity
8
pcb2
6
ByLayer
62
256
370
-1
100
AcDbLine
10
184.6
20
52.4
11
104.6
21
52.4
0
LINE
5
102
100
AcDbEntity
8
pcb2
6
ByLayer
62
256
370
-1
100
AcDbLine
10
104.6
20
52.4
11
104.6
21
2.4
0
LINE
5
103
100
AcDbEntity
8
0
6
ByLayer
62
256
370
-1
100
AcDbLine
10
184.6
20
115.6
11
184.6
21
2.4
0
LINE
5
104
100
AcDbEntity
8
pcb2
6
ByLayer
62
256
370
-1
100
AcDbLine
10
184.6
20
2.4
11
184.6
21
2.4
0
LINE
5
105
100
AcDbEntity
8
pcb2
6
ByLayer
62
256
370
-1
100
AcDbLine
10
184.6
20
2.4
11
184.6
21
2.4
0
LINE
5
106
100
AcDbEntity
8
pcb2
6
ByLayer
62
256
370
-1
100
AcDbLine
10
184.6
20
2.4
11
184.6
21
2.4
0
LINE
5
107
100
AcDbEntity
8
pcb2
6
ByLayer
62
256
370
-1
100
AcDbLine
10
184.6
20
2.4
11
184.6
21
2.4
0
LINE
5
108
100
AcDbEntity
8
pcb2
6
ByLayer
62
256
370
-1
100
AcDbLine
10
184.6
20
2.4
11
184.6
21
2.4
0
LINE
5
109
100
AcDbEntity
8
pcb2
6
ByLayer
62
256
370
-1
100
AcDbLine
10
184.6
20
2.4
11
184.6
21
2.4
0
LINE
5
10A
100
AcDbEntity
8
pcb2
6
ByLayer
62
256
370
-1
100
AcDbLine
10
184.6
20
2.4
11
184.6
21
2.4
0
LINE
5
10B
100
AcDbEntity
8
pcb2
6
ByLayer
62
256
370
-1
100
AcDbLine
10
184.6
20
2.4
11
184.6
21
2.4
0
LINE
5
10C
100
AcDbEntity
8
pcb2
6
ByLayer
62
256
370
-1
100
AcDbLine
10
184.6
20
2.4
11
184.6
21
2.4
0
LINE
5
10D
100
AcDbEntity
8
pcb2
6
ByLayer
62
256
370
-1
100
AcDbLine
10
184.6
20
2.4
11
184.6
21
2.4
0
LINE
5
10E
100
AcDbEntity
8
pcb2
6
ByLayer
62
256
370
-1
100
AcDbLine
10
184.6
20
2.4
11
184.6
21
2.4
0
LINE
5
10F
100
AcDbEntity
8
pcb2
6
ByLayer
62
256
370
-1
100
AcDbLine
10
184.6
20
2.4
11
184.6
21
2.4
0
LINE
5
110
100
AcDbEntity
8
pcb2
6
ByLayer
62
256
370
-1
100
AcDbLine
10
177.6
20
2.4
11
177.6
21
9.4
0
LINE
5
111
100
AcDbEntity
8
pcb2
6
ByLayer
62
256
370
-1
100
AcDbLine
10
177.6
20
9.4
11
184.6
21
9.4
0
LINE
5
112
100
AcDbEntity
8
pcb2
6
ByLayer
62
256
370
-1
100
AcDbLine
10
184.6
20
9.4
11
184.6
21
52.4
0
LINE
5
113
100
AcDbEntity
8
pcb2
6
ByLayer
62
256
370
-1
100
AcDbLine
10
104.6
20
2.4
11
177.6
21
2.4
0
LINE
5
114
100
AcDbEntity
8
0
6
ByLayer
62
256
370
-1
100
AcDbLine
10
174.6
20
27
11
194.6
21
27
0
LINE
5
115
100
AcDbEntity
8
pcb2
6
ByLayer
62
256
370
-1
100
AcDbLine
10
202.6
20
42
11
202.6
21
36.5
0
LINE
5
116
100
AcDbEntity
8
pcb2
6
ByLayer
62
256
370
-1
100
AcDbLine
10
196.6
20
42
11
196.6
21
36.5
0
LINE
5
117
100
AcDbEntity
8
pcb2
6
ByLayer
62
256
370
-1
100
AcDbLine
10
202.6
20
42
11
196.6
21
42
0
LINE
5
118
100
AcDbEntity
8
pcb2
6
ByLayer
62
256
370
-1
100
AcDbLine
10
194.6
20
36.5
11
194.6
21
17.5
0
LINE
5
119
100
AcDbEntity
8
pcb2
6
ByLayer
62
256
370
-1
100
AcDbLine
10
204.6
20
17.5
11
204.6
21
36.5
0
LINE
5
11A
100
AcDbEntity
8
pcb2
6
ByLayer
62
256
370
-1
100
AcDbLine
10
202.6
20
12
11
202.6
21
17.5
0
LINE
5
11B
100
AcDbEntity
8
pcb2
6
ByLayer
62
256
370
-1
100
AcDbLine
10
196.6
20
12
11
196.6
21
17.5
0
LINE
5
11C
100
AcDbEntity
8
pcb2
6
ByLayer
62
256
370
-1
100
AcDbLine
10
202.6
20
12
11
196.6
21
12
0
LINE
5
11D
100
AcDbEntity
8
pcb2
6
ByLayer
62
256
370
-1
100
AcDbLine
10
196.6
20
36.5
11
194.6
21
36.5
0
LINE
5
11E
100
AcDbEntity
8
pcb2
6
ByLayer
62
256
370
-1
100
AcDbLine
10
204.6
20
36.5
11
202.6
21
36.5
0
LINE
5
11F
100
AcDbEntity
8
pcb2
6
ByLayer
62
256
370
-1
100
AcDbLine
10
194.6
20
17.5
11
196.6
21
17.5
0
LINE
5
120
100
AcDbEntity
8
pcb2
6
ByLayer
62
256
370
-1
100
AcDbLine
10
202.6
20
17.5
11
204.6
21
17.5
0
LINE
5
121
100
AcDbEntity
8
0
6
ByLayer
62
256
370
-1
100
AcDbLine
10
196.6
20
42
11
176.6
21
42
0
LINE
5
122
100
AcDbEntity
8
0
6
ByLayer
62
256
370
-1
100
AcDbLine
10
196.6
20
12
11
176.6
21
12
0
LINE
5
123
100
AcDbEntity
8
invis
6
ByLayer
62
256
370
-1
100
AcDbLine
10
127.6
20
-7.6
11
127.6
21
12.4
0
LINE
5
124
100
AcDbEntity
8
invis
6
ByLayer
62
256
370
-1
100
AcDbLine
10
134.6
20
-7.6
11
134.6
21
12.4
0
LINE
5
125
100
AcDbEntity
8
invis
6
ByLayer
62
256
370
-1
100
AcDbLine
10
138.1
20
0
11
138.1
21
2.4
0
LINE
5
126
100
AcDbEntity
8
invis
6
ByLayer
62
256
370
-1
100
AcDbLine
10
131.1
20
0
11
131.1
21
2.4
0
LINE
5
127
100
AcDbEntity
8
invis
6
ByLayer
62
256
370
-1
100
AcDbLine
10
129.1
20
0
11
129.1
21
2.4
0
LINE
5
128
100
AcDbEntity
8
invis
6
ByLayer
62
256
370
-1
100
AcDbLine
10
126.1
20
0
11
126.1
21
2.4
0
LINE
5
129
100
AcDbEntity
8
0
6
ByLayer
62
256
370
-1
100
AcDbLine
10
0
20
0
11
93.5
21
0
0
LINE
5
12A
100
AcDbEntity
8
0
6
ByLayer
62
256
370
-1
100
AcDbLine
10
93.5
20
0
11
187
21
0
0
LINE
5
12B
100
AcDbEntity
8
invis
6
ByLayer
62
256
370
-1
100
AcDbLine
10
46.75
20
-100
11
46.75
21
100
0
LINE
5
12C
100
AcDbEntity
8
invis
6
ByLayer
62
256
370
-1
100
AcDbLine
10
69.25
20
0
11
69.25
21
2.4
0
LINE
5
12D
100
AcDbEntity
8
invis
6
ByLayer
62
256
370
-1
100
AcDbLine
10
24.25
20
0
11
24.25
21
2.4
0
LINE
5
12E
100
AcDbEntity
8
invis
6
ByLayer
62
256
370
-1
100
AcDbLine
10
46.75
20
-41
11
46.75
21
159
0
LINE
5
12F
100
AcDbEntity
8
invis
6
ByLayer
62
256
370
-1
100
AcDbLine
10
23.25
20
118
11
23.25
21
115.6
0
LINE
5
130
100
AcDbEntity
8
invis
6
ByLayer
62
256
370
-1
100
AcDbLine
10
70.25
20
118
11
70.25
21
115.6
0
LINE
5
131
100
AcDbEntity
8
invis
6
ByLayer
62
256
370
-1
100
AcDbLine
10
187
20
118
11
487
21
118
0
LINE
5
132
100
AcDbEntity
8
0
6
ByLayer
62
256
370
-1
100
AcDbLine
10
250
20
0
11
302.5
21
0
0
LINE
5
133
100
AcDbEntity
8
0
6
ByLayer
62
256
370
-1
100
AcDbLine
10
302.5
20
0
11
302.5
21
118
0
LINE
5
134
100
AcDbEntity
8
0
6
ByLayer
62
256
370
-1
100
AcDbLine
10
302.5
20
118
11
250
21
118
0
LINE
5
135
100
AcDbEntity
8
0
6
ByLayer
62
256
370
-1
100
AcDbLine
10
250
20
118
11
250
21
0
0
LINE
5
136
100
AcDbEntity
8
invis
6
ByLayer
62
256
370
-1
100
AcDbLine
10
194.6
20
27
11
494.6
21
27
0
LINE
5
137
100
AcDbEntity
8
pcb2
6
ByLayer
62
256
370
-1
100
AcDbLine
10
279
20
42
11
279
21
36.5
0
LINE
5
138
100
AcDbEntity
8
pcb2
6
ByLayer
62
256
370
-1
100
AcDbLine
10
273
20
42
11
273
21
36.5
0
LINE
5
139
100
AcDbEntity
8
pcb2
6
ByLayer
62
256
370
-1
100
AcDbLine
10
279
20
42
11
273
21
42
0
LINE
5
13A
100
AcDbEntity
8
pcb2
6
ByLayer
62
256
370
-1
100
AcDbLine
10
271
20
36.5
11
271
21
17.5
0
LINE
5
13B
100
AcDbEntity
8
pcb2
6
ByLayer
62
256
370
-1
100
AcDbLine
10
281
20
17.5
11
281
21
36.5
0
LINE
5
13C
100
AcDbEntity
8
pcb2
6
ByLayer
62
256
370
-1
100
AcDbLine
10
279
20
12
11
279
21
17.5
0
LINE
5
13D
100
AcDbEntity
8
pcb2
6
ByLayer
62
256
370
-1
100
AcDbLine
10
273
20
12
11
273
21
17.5
0
LINE
5
13E
100
AcDbEntity
8
pcb2
6
ByLayer
62
256
370
-1
100
AcDbLine
10
279
20
12
11
273
21
12
0
LINE
5
13F
100
AcDbEntity
8
pcb2
6
ByLayer
62
256
370
-1
100
AcDbLine
10
273
20
36.5
11
271
21
36.5
0
LINE
5
140
100
AcDbEntity
8
pcb2
6
ByLayer
62
256
370
-1
100
AcDbLine
10
281
20
36.5
11
279
21
36.5
0
LINE
5
141
100
AcDbEntity
8
pcb2
6
ByLayer
62
256
370
-1
100
AcDbLine
10
271
20
17.5
11
273
21
17.5
0
LINE
5
142
100
AcDbEntity
8
pcb2
6
ByLayer
62
256
370
-1
100
AcDbLine
10
279
20
17.5
11
281
21
17.5
0
LINE
5
143
100
AcDbEntity
8
0
6
ByLayer
62
256
370
-1
100
AcDbLine
10
0
20
-40
11
0
21
-92.5
0
LINE
5
144
100
AcDbEntity
8
0
6
ByLayer
62
256
370
-1
100
AcDbLine
10
0
20
-92.5
11
187
21
-92.5
0
LINE
5
145
100
AcDbEntity
8
0
6
ByLayer
62
256
370
-1
100
AcDbLine
10
187
20
-40
11
0
21
-40
0
LINE
5
146
100
AcDbEntity
8
0
6
ByLayer
62
256
370
-1
100
AcDbLine
10
187
20
-40
11
187
21
-92.5
0
DIMENSION
5
147
100
AcDbEntity
8
sizes
6
ByLayer
62
256
370
-1
100
AcDbDimension
2
*D1
10
281
20
-10
30
0
11
276
21
-8.125
31
0
70
32
71
5
3
Standard
53
0
210
0
220
0
230
1
100
AcDbAlignedDimension
13
271
23
17.5
33
0
14
281
24
17.5
34
0
100
AcDbRotatedDimension
0
DIMENSION
5
148
100
AcDbEntity
8
sizes
6
ByLayer
62
256
370
-1
100
AcDbDimension
2
*D2
10
302.5
20
-10
30
0
11
291.75
21
-8.125
31
0
70
32
71
5
3
Standard
53
0
210
0
220
0
230
1
100
AcDbAlignedDimension
13
281
23
27
33
0
14
302.5
24
27
34
0
100
AcDbRotatedDimension
0
LINE
5
149
100
AcDbEntity
8
pcb2
6
ByLayer
62
256
370
-1
100
AcDbLine
10
24.25
20
-50
11
69.25
21
-50
0
LINE
5
14A
100
AcDbEntity
8
pcb2
6
ByLayer
62
256
370
-1
100
AcDbLine
10
69.25
20
-50
11
69.25
21
-76
0
LINE
5
14B
100
AcDbEntity
8
pcb2
6
ByLayer
62
256
370
-1
100
AcDbLine
10
69.25
20
-76
11
24.25
21
-76
0
LINE
5
14C
100
AcDbEntity
8
pcb2
6
ByLayer
62
256
370
-1
100
AcDbLine
10
24.25
20
-76
11
24.25
21
-50
0
DIMENSION
5
14D
100
AcDbEntity
8
sizes
6
ByLayer
62
256
370
-1
100
AcDbDimension
2
*D3
10
330
20
-3.36777869766e-15
30
0
11
328.125
21
6
31
0
70
32
71
5
3
Standard
53
0
210
0
220
0
230
1
100
AcDbAlignedDimension
13
279
23
12
33
0
14
302.5
24
0
34
0
50
90
100
AcDbRotatedDimension
0
DIMENSION
5
14E
100
AcDbEntity
8
sizes
6
ByLayer
62
256
370
-1
100
AcDbDimension
2
*D4
10
271
20
-10
30
0
11
260.5
21
-8.125
31
0
70
32
71
5
3
Standard
53
0
210
0
220
0
230
1
100
AcDbAlignedDimension
13
250
23
0
33
0
14
271
24
17.5
34
0
100
AcDbRotatedDimension
0
DIMENSION
5
14F
100
AcDbEntity
8
sizes
6
ByLayer
62
256
370
-1
100
AcDbDimension
2
*D5
10
330
20
42
30
0
11
328.125
21
27
31
0
70
32
71
5
3
Standard
53
0
210
0
220
0
230
1
100
AcDbAlignedDimension
13
279
23
12
33
0
14
279
24
42
34
0
50
90
100
AcDbRotatedDimension
0
DIMENSION
5
150
100
AcDbEntity
8
sizes
6
ByLayer
62
256
370
-1
100
AcDbDimension
2
*D6
10
320
20
36.5
30
0
11
318.125
21
27
31
0
70
32
71
5
3
Standard
53
0
210
0
220
0
230
1
100
AcDbAlignedDimension
13
281
23
17.5
33
0
14
281
24
36.5
34
0
50
90
100
AcDbRotatedDimension
0
DIMENSION
5
151
100
AcDbEntity
8
sizes
6
ByLayer
62
256
370
-1
100
AcDbDimension
2
*D7
10
279
20
-5
30
0
11
276
21
-3.125
31
0
70
32
71
5
3
Standard
53
0
210
0
220
0
230
1
100
AcDbAlignedDimension
13
273
23
12
33
0
14
279
24
12
34
0
100
AcDbRotatedDimension
0
DIMENSION
5
152
100
AcDbEntity
8
sizes
6
ByLayer
62
256
370
-1
100
AcDbDimension
2
*D8
10
69.25
20
-110
30
0
11
46.75
21
-108.125
31
0
70
32
71
5
3
Standard
53
0
210
0
220
0
230
1
100
AcDbAlignedDimension
13
24.25
23
-76
33
0
14
69.25
24
-76
34
0
100
AcDbRotatedDimension
0
DIMENSION
5
153
100
AcDbEntity
8
sizes
6
ByLayer
62
256
370
-1
100
AcDbDimension
2
*D9
10
-10
20
-50
30
0
11
-11.875
21
-45
31
0
70
32
71
5
3
Standard
53
0
210
0
220
0
230
1
100
AcDbAlignedDimension
13
0
23
-40
33
0
14
24.25
24
-50
34
0
50
90
100
AcDbRotatedDimension
0
DIMENSION
5
154
100
AcDbEntity
8
sizes
6
ByLayer
62
256
370
-1
100
AcDbDimension
2
*D10
10
-10
20
-76
30
0
11
-11.875
21
-63
31
0
70
32
71
5
3
Standard
53
0
210
0
220
0
230
1
100
AcDbAlignedDimension
13
24.25
23
-50
33
0
14
24.25
24
-76
34
0
50
90
100
AcDbRotatedDimension
0
DIMENSION
5
155
100
AcDbEntity
8
sizes
6
ByLayer
62
256
370
-1
100
AcDbDimension
2
*D11
10
24.25
20
-110
30
0
11
12.125
21
-108.125
31
0
70
32
71
5
3
Standard
53
0
210
0
220
0
230
1
100
AcDbAlignedDimension
13
0
23
-40
33
0
14
24.25
24
-76
34
0
100
AcDbRotatedDimension
0
LINE
5
156
100
AcDbEntity
8
0
6
ByLayer
62
256
370
-1
100
AcDbLine
10
0
20
220
11
0
21
167.5
0
LINE
5
157
100
AcDbEntity
8
0
6
ByLayer
62
256
370
-1
100
AcDbLine
10
0
20
167.5
11
187
21
167.5
0
LINE
5
158
100
AcDbEntity
8
0
6
ByLayer
62
256
370
-1
100
AcDbLine
10
187
20
220
11
0
21
220
0
LINE
5
159
100
AcDbEntity
8
0
6
ByLayer
62
256
370
-1
100
AcDbLine
10
187
20
220
11
187
21
167.5
0
LINE
5
15A
100
AcDbEntity
8
pcb2
6
ByLayer
62
256
370
-1
100
AcDbLine
10
23.25
20
209
11
70.25
21
209
0
LINE
5
15B
100
AcDbEntity
8
pcb2
6
ByLayer
62
256
370
-1
100
AcDbLine
10
70.25
20
209
11
70.25
21
182
0
LINE
5
15C
100
AcDbEntity
8
pcb2
6
ByLayer
62
256
370
-1
100
AcDbLine
10
70.25
20
182
11
23.25
21
182
0
LINE
5
15D
100
AcDbEntity
8
pcb2
6
ByLayer
62
256
370
-1
100
AcDbLine
10
23.25
20
182
11
23.25
21
209
0
DIMENSION
5
15E
100
AcDbEntity
8
sizes
6
ByLayer
62
256
370
-1
100
AcDbDimension
2
*D12
10
-20
20
209
30
0
11
-21.875
21
214.5
31
0
70
32
71
5
3
Standard
53
0
210
0
220
0
230
1
100
AcDbAlignedDimension
13
0
23
220
33
0
14
23.25
24
209
34
0
50
90
100
AcDbRotatedDimension
0
DIMENSION
5
15F
100
AcDbEntity
8
sizes
6
ByLayer
62
256
370
-1
100
AcDbDimension
2
*D13
10
-20
20
182
30
0
11
-21.875
21
195.5
31
0
70
32
71
5
3
Standard
53
0
210
0
220
0
230
1
100
AcDbAlignedDimension
13
23.25
23
209
33
0
14
23.25
24
182
34
0
50
90
100
AcDbRotatedDimension
0
DIMENSION
5
160
100
AcDbEntity
8
sizes
6
ByLayer
62
256
370
-1
100
AcDbDimension
2
*D14
10
23.25
20
230
30
0
11
11.625
21
231.875
31
0
70
32
71
5
3
Standard
53
0
210
0
220
0
230
1
100
AcDbAlignedDimension
13
0
23
220
33
0
14
23.25
24
209
34
0
100
AcDbRotatedDimension
0
DIMENSION
5
161
100
AcDbEntity
8
sizes
6
ByLayer
62
256
370
-1
100
AcDbDimension
2
*D15
10
70.25
20
230
30
0
11
46.75
21
231.875
31
0
70
32
71
5
3
Standard
53
0
210
0
220
0
230
1
100
AcDbAlignedDimension
13
23.25
23
209
33
0
14
70.25
24
209
34
0
100
AcDbRotatedDimension
0
DIMENSION
5
162
100
AcDbEntity
8
sizes
6
ByLayer
62
256
370
-1
100
AcDbDimension
2
*D16
10
220
20
-40
30
0
11
218.125
21
-48.5
31
0
70
32
71
5
3
Standard
53
0
210
0
220
0
230
1
100
AcDbAlignedDimension
13
127.6
23
-57
33
0
14
187
24
-40
34
0
50
90
100
AcDbRotatedDimension
0
CIRCLE
5
163
100
AcDbEntity
8
0
6
ByLayer
62
256
370
-1
100
AcDbCircle
10
134.6
20
-57
40
3.5
0
CIRCLE
5
164
100
AcDbEntity
8
0
6
ByLayer
62
256
370
-1
100
AcDbCircle
10
127.1
20
-57
40
1.5
0
DIMENSION
5
165
100
AcDbEntity
8
sizes
6
ByLayer
62
256
370
-1
100
AcDbDimension
2
*D17
10
134.6
20
-30
30
0
11
130.85
21
-28.125
31
0
70
32
71
5
3
Standard
53
0
210
0
220
0
230
1
100
AcDbAlignedDimension
13
127.1
23
-57
33
0
14
134.6
24
-57
34
0
100
AcDbRotatedDimension
0
DIMENSION
5
166
100
AcDbEntity
8
sizes
6
ByLayer
62
256
370
-1
100
AcDbDimension
2
*D18
10
187
20
-30
30
0
11
160.8
21
-28.125
31
0
70
32
71
5
3
Standard
53
0
210
0
220
0
230
1
100
AcDbAlignedDimension
13
134.6
23
-57
33
0
14
187
24
-40
34
0
100
AcDbRotatedDimension
0
DIMENSION
5
167
100
AcDbEntity
8
sizes
6
ByLayer
62
256
370
-1
100
AcDbDimension
2
*D19
10
220
20
-92.5
30
0
11
218.125
21
-74.75
31
0
70
32
71
5
3
Standard
53
0
210
0
220
0
230
1
100
AcDbAlignedDimension
13
134.6
23
-57
33
0
14
187
24
-92.5
34
0
50
90
100
AcDbRotatedDimension
0
MTEXT
5
168
100
AcDbEntity
8
sizes
6
ByLayer
62
256
370
-1
100
AcDbMText
10
370
20
-90
30
0
40
10
41
211.111111111
71
5
72
1
1
6.75 между дырой и разъемом
7
unicode
210
0
220
0
230
1
50
0
73
2
44
1
0
MTEXT
5
169
100
AcDbEntity
8
sizes
6
ByLayer
62
256
370
-1
100
AcDbMText
10
390
20
180
30
0
40
10
41
248.055555556
71
5
72
1
1
переделать без углового крепежа!
7
unicode
210
0
220
0
230
1
50
0
73
2
44
1
0
ENDSEC
0
SECTION
2
OBJECTS
0
DICTIONARY
5
C
330
0
100
AcDbDictionary
281
1
3
ACAD_GROUP
350
D
0
DICTIONARY
5
D
330
C
100
AcDbDictionary
281
1
0
ENDSEC
0
EOF
